<svg width="382" height="382" viewBox="0 0 382 382" fill="none" xmlns="http://www.w3.org/2000/svg">
<path d="M6 45.3189C6 23.6188 25.8956 6 50.4 6H331.6C356.104 6 376 23.6188 376 45.3189V347.55C376 369.25 360.946 378.559 342.404 368.324C323.862 358.088 295.179 358.088 278.394 368.324C261.609 378.559 235.214 378.559 219.49 368.324C203.766 358.088 176.741 358.088 159.18 368.324C141.619 378.559 114.03 378.559 97.612 368.324C81.1941 358.088 54.0034 358.088 36.932 368.324C19.8606 378.559 6 369.25 6 347.55V45.3189Z" fill="#C3E7F2"/>
<path d="M6 45.3189C6 23.6188 25.8956 6 50.4 6H331.6C356.104 6 376 23.6188 376 45.3189V347.55C376 369.25 360.946 378.559 342.404 368.324C323.862 358.088 295.179 358.088 278.394 368.324C261.609 378.559 235.214 378.559 219.49 368.324C203.766 358.088 176.741 358.088 159.18 368.324C141.619 378.559 114.03 378.559 97.612 368.324C81.1941 358.088 54.0034 358.088 36.932 368.324C19.8606 378.559 6 369.25 6 347.55V45.3189Z" stroke="#003E75" stroke-width="11" stroke-linecap="round" stroke-linejoin="round"/>
<path d="M124.4 111.492H168.8" stroke="#003E75" stroke-width="11" stroke-linecap="round" stroke-linejoin="round"/>
<path d="M124.4 163.918H257.6" stroke="#003E75" stroke-width="11" stroke-linecap="round" stroke-linejoin="round"/>
<path d="M124.4 216.343H257.6" stroke="#003E75" stroke-width="11" stroke-linecap="round" stroke-linejoin="round"/>
</svg>
