<svg width="162" height="140" viewBox="0 0 162 140" fill="none" xmlns="http://www.w3.org/2000/svg">
<path d="M141.928 14.1638C141.928 14.1638 142.141 13.7578 142.567 12.9458C143.004 12.1394 143.72 11.0025 144.717 9.53525C145.709 8.0736 146.7 6.53074 147.691 4.90668C148.682 3.28822 149.228 2.42858 149.329 2.32778C149.424 2.22137 149.536 2.13457 149.665 2.06737C149.794 2.00017 149.928 1.95536 150.068 1.93296C150.208 1.91056 150.348 1.91336 150.488 1.94136C150.634 1.96376 150.768 2.00857 150.892 2.07577C151.02 2.14297 151.132 2.22977 151.228 2.33618C151.328 2.43698 151.407 2.55459 151.463 2.68899C151.524 2.8178 151.564 2.9522 151.58 3.09221C151.592 3.23781 151.583 3.38062 151.555 3.52062C151.522 3.66063 151.468 3.79223 151.396 3.91544C151.317 4.03864 151.225 4.14505 151.118 4.23465C151.006 4.32425 150.883 4.39706 150.749 4.45306C150.62 4.50346 150.483 4.53146 150.337 4.53706C150.192 4.54826 150.052 4.53426 149.917 4.49506C149.777 4.45586 149.648 4.39426 149.531 4.31025C149.413 4.23185 149.312 4.13385 149.228 4.01624C149.139 3.90424 149.071 3.78103 149.027 3.64663C148.982 3.50662 148.959 3.36662 148.959 3.22661C148.959 3.08101 148.985 2.941 149.035 2.8066C149.08 2.67219 149.147 2.54619 149.237 2.42858C149.321 2.31658 149.424 2.22137 149.547 2.14297C149.665 2.06457 149.791 2.00577 149.926 1.96656C150.066 1.92736 150.208 1.91336 150.354 1.92456C150.494 1.93016 150.631 1.96096 150.766 2.01697C150.9 2.06737 151.02 2.14017 151.127 2.23538C151.239 2.33058 151.331 2.43978 151.404 2.56299C151.477 2.68619 151.527 2.8178 151.555 2.9578C151.583 3.09781 151.589 3.23781 151.572 3.37782C151.561 3.52342 151.524 3.66063 151.463 3.78943C151.401 3.91824 151.37 3.98264 151.37 3.98264C151.37 3.98264 150.766 4.74427 149.556 6.26753C148.352 7.78519 147.134 9.19084 145.902 10.4845C144.675 11.7781 143.706 12.7162 142.995 13.2986L141.928 14.1638Z" fill="black"/>
<path d="M161.896 10.8037C161.896 10.8037 161.507 10.6805 160.728 10.4341C159.944 10.1877 158.709 9.5381 157.024 8.48526C155.338 7.43242 154.128 6.59238 153.395 5.96516C152.661 5.33794 151.796 4.58471 150.799 3.70547C149.802 2.82624 149.259 2.32502 149.17 2.20182C149.08 2.07861 149.013 1.94701 148.968 1.807C148.923 1.6614 148.901 1.51299 148.901 1.36179C148.901 1.21058 148.926 1.06497 148.976 0.924969C149.027 0.779363 149.1 0.647758 149.195 0.530153C149.29 0.412549 149.399 0.311745 149.522 0.227742C149.651 0.143739 149.788 0.0849365 149.934 0.0513352C150.08 0.0121337 150.228 -0.00186674 150.379 0.00933368C150.53 0.0205341 150.676 0.0541353 150.816 0.110137C150.956 0.16614 151.082 0.244543 151.194 0.345346C151.306 0.44615 151.401 0.560955 151.48 0.68976C151.552 0.818564 151.606 0.95857 151.639 1.10978C151.667 1.25538 151.673 1.40379 151.656 1.55499C151.634 1.7062 151.589 1.849 151.522 1.98341C151.46 2.11781 151.376 2.24102 151.27 2.35302C151.163 2.45943 151.043 2.54623 150.908 2.61343C150.774 2.68064 150.631 2.72544 150.48 2.74784C150.334 2.77024 150.186 2.76744 150.035 2.73944C149.889 2.71704 149.749 2.66943 149.615 2.59663C149.48 2.52383 149.363 2.43143 149.262 2.31942C149.161 2.20742 149.08 2.08141 149.018 1.94141C148.957 1.807 148.92 1.6642 148.909 1.51299C148.892 1.36179 148.901 1.21338 148.934 1.06777C148.973 0.922168 149.032 0.784963 149.111 0.656158C149.189 0.527353 149.287 0.415349 149.405 0.320145C149.522 0.224942 149.651 0.149339 149.791 0.0933368C149.931 0.0373347 150.077 0.00653358 150.228 0.000933371C150.379 -0.00466684 150.528 0.0149338 150.673 0.0597356C150.819 0.104537 150.953 0.16894 151.076 0.252943C151.2 0.342546 151.261 0.387348 151.261 0.387348C151.261 0.387348 152.017 1.23018 153.529 2.91584C155.047 4.60711 156.506 6.08276 157.906 7.34281C159.306 8.59726 160.322 9.48489 160.955 10.0057L161.896 10.8037Z" fill="black"/>
<path d="M2.13868 139.329C2.13868 139.329 1.99028 138.953 1.69346 138.203C1.39665 137.458 1.08584 136.333 0.761029 134.826C0.447417 133.32 0.229009 131.746 0.105804 130.105C-0.0230009 128.47 -0.0342013 126.683 0.0722027 124.746C0.178607 122.814 0.394215 120.887 0.719027 118.966C1.04384 117.045 1.44986 115.251 1.93707 113.582C2.41869 111.918 2.93111 110.367 3.47433 108.928C4.01755 107.489 4.56357 106.128 5.11239 104.845C5.65561 103.563 6.17083 102.387 6.65805 101.317C7.14527 100.242 7.73329 99.0939 8.42212 97.873C9.11095 96.6578 9.78577 95.5518 10.4466 94.5549C11.113 93.5581 11.785 92.5948 12.4627 91.6652C13.1459 90.7356 13.8291 89.8592 14.5124 89.0359C15.2012 88.2127 15.8816 87.4315 16.5536 86.6922C17.2257 85.9474 17.9677 85.2222 18.7797 84.5165C19.5861 83.8109 20.4066 83.1809 21.241 82.6265C22.0754 82.072 23.0611 81.4644 24.1979 80.8036C25.3404 80.1428 26.3456 79.5912 27.2136 79.1487C28.0873 78.7063 29.1597 78.1855 30.431 77.5863C31.6966 76.9871 32.8838 76.4998 33.9927 76.1246C35.0959 75.7438 36.286 75.405 37.5628 75.1082C38.8453 74.817 40.0437 74.5818 41.1582 74.4026C42.2726 74.2234 43.3114 74.0805 44.2747 73.9741C45.2379 73.8677 46.2096 73.7809 47.1896 73.7137C48.1696 73.6409 49.1637 73.5653 50.1717 73.4869C51.1741 73.4141 52.3446 73.2853 53.683 73.1005C55.0215 72.9157 56.4048 72.6861 57.8328 72.4117C59.2553 72.1317 60.6581 71.8629 62.0414 71.6053C63.4246 71.3532 64.7799 71.0984 66.1071 70.8408C67.4344 70.5832 68.812 70.3648 70.2401 70.1856C71.6737 70.0008 72.8918 69.8664 73.8942 69.7824C74.891 69.6984 75.9215 69.5948 76.9855 69.4716C78.0496 69.3428 79.108 69.2196 80.1609 69.102C81.2193 68.9843 82.2357 68.8779 83.2102 68.7827C84.1846 68.6931 85.2542 68.5783 86.4191 68.4383C87.5895 68.3039 88.7012 68.1779 89.754 68.0603C90.8013 67.9427 91.8233 67.8279 92.8201 67.7159C93.8114 67.5983 94.9146 67.4611 96.1299 67.3043C97.3451 67.1419 98.5548 66.9683 99.7588 66.7835C100.968 66.6043 102.15 66.4055 103.304 66.187C104.457 65.9742 105.687 65.753 106.991 65.5234C108.291 65.2882 109.542 65.0642 110.746 64.8514C111.95 64.6442 113.127 64.4146 114.275 64.1626C115.417 63.9106 116.501 63.653 117.525 63.3897C118.55 63.1321 119.687 62.7933 120.936 62.3733C122.185 61.9589 123.507 61.4409 124.901 60.8192C126.29 60.1976 127.53 59.534 128.622 58.8284C129.714 58.1227 130.798 57.2799 131.873 56.2999C132.948 55.3142 133.87 54.379 134.637 53.4942C135.399 52.6149 136.127 51.7665 136.821 50.9489C137.51 50.1312 138.439 48.972 139.61 47.4711C140.786 45.9703 141.847 44.4638 142.794 42.9518C143.74 41.4453 144.566 39.9892 145.272 38.5836C145.983 37.1835 146.649 35.7387 147.271 34.249C147.893 32.7594 148.413 31.4013 148.833 30.1749C149.253 28.954 149.587 27.7864 149.833 26.6719C150.085 25.5575 150.281 24.4711 150.421 23.4126C150.561 22.3542 150.645 20.8869 150.673 19.0108C150.701 17.1404 150.721 15.4855 150.732 14.0463C150.743 12.6014 150.729 11.3218 150.69 10.2073C150.651 9.09847 150.536 7.98683 150.346 6.87239C150.161 5.75794 150.082 5.10832 150.11 4.92351C150.138 4.7387 150.197 4.5623 150.287 4.39429C150.371 4.23188 150.48 4.08908 150.614 3.96587C150.754 3.83707 150.908 3.73347 151.076 3.65506C151.244 3.57666 151.421 3.52626 151.606 3.50386C151.79 3.48146 151.975 3.48986 152.16 3.52906C152.345 3.56826 152.516 3.63546 152.672 3.73067C152.835 3.83147 152.975 3.95187 153.092 4.09188C153.216 4.22628 153.314 4.38029 153.386 4.5539C153.454 4.7275 153.493 4.90951 153.504 5.09992C153.515 5.28472 153.496 5.46673 153.445 5.64594C153.395 5.82515 153.319 5.99315 153.218 6.14996C153.112 6.30116 152.983 6.43557 152.832 6.55317C152.686 6.66518 152.524 6.75198 152.345 6.81358C152.171 6.87519 151.989 6.90599 151.799 6.90599C151.614 6.90599 151.432 6.87519 151.253 6.81358C151.079 6.75758 150.917 6.67078 150.766 6.55317C150.614 6.44117 150.488 6.30956 150.388 6.15836C150.281 6.00155 150.203 5.83355 150.152 5.65434C150.102 5.47513 150.082 5.29312 150.094 5.10832C150.099 4.91791 150.138 4.7359 150.211 4.5623C150.278 4.38869 150.371 4.23468 150.488 4.10028C150.612 3.95467 150.752 3.83427 150.908 3.73907C151.071 3.64386 151.242 3.57386 151.421 3.52906C151.606 3.48986 151.79 3.48146 151.975 3.50386C152.16 3.52066 152.339 3.56826 152.513 3.64666C152.681 3.72507 152.832 3.82867 152.966 3.95747C153.106 4.08068 153.218 4.22348 153.302 4.38589C153.392 4.5539 153.451 4.7303 153.479 4.91511C153.512 5.09992 153.529 5.19232 153.529 5.19232C153.529 5.18672 153.624 5.70194 153.815 6.73798C154.005 7.77402 154.137 8.89126 154.21 10.0897C154.282 11.2882 154.316 12.6154 154.31 14.0715C154.305 15.5275 154.268 17.244 154.201 19.2209C154.128 21.1921 154.025 22.7574 153.89 23.9166C153.75 25.0703 153.549 26.2687 153.286 27.512C153.022 28.7608 152.67 30.0489 152.227 31.3761C151.79 32.709 151.244 34.1594 150.589 35.7275C149.94 37.3011 149.245 38.8328 148.506 40.3225C147.761 41.8121 146.882 43.3634 145.868 44.9762C144.855 46.5947 143.726 48.1852 142.483 49.7476C141.24 51.3157 140.254 52.5113 139.526 53.3346C138.803 54.1578 138.031 55.0118 137.207 55.8967C136.384 56.7871 135.334 57.7923 134.057 58.9124C132.786 60.0268 131.532 60.9704 130.294 61.7433C129.062 62.5105 127.897 63.1517 126.799 63.6669C125.696 64.1766 124.523 64.661 123.28 65.1202C122.036 65.5738 120.908 65.9518 119.894 66.2542C118.881 66.5511 117.808 66.8311 116.677 67.0943C115.546 67.3575 114.375 67.6095 113.166 67.8503C111.962 68.0911 110.713 68.3207 109.419 68.5391C108.131 68.7575 106.863 68.9816 105.614 69.2112C104.371 69.4352 103.169 69.6396 102.01 69.8244C100.856 70.0092 99.6776 70.1856 98.4735 70.3536C97.2751 70.516 96.0795 70.67 94.8866 70.8156C93.6994 70.9612 92.6129 71.09 91.6273 71.202C90.6417 71.314 89.6 71.4316 88.5024 71.5548C87.4047 71.6725 86.3015 71.7901 85.1926 71.9077C84.0838 72.0253 83.031 72.1317 82.0341 72.2269C81.0429 72.3221 80.0153 72.4313 78.9512 72.5545C77.8872 72.6833 76.8175 72.8009 75.7423 72.9073C74.6614 73.0193 73.435 73.1425 72.0629 73.2769C70.6909 73.4057 69.3636 73.5877 68.0812 73.8229C66.7931 74.0581 65.4491 74.3102 64.049 74.579C62.649 74.8534 61.4729 75.0802 60.5209 75.2594C59.5633 75.433 58.3816 75.6514 56.976 75.9146C55.5647 76.1778 54.3775 76.371 53.4142 76.4942C52.451 76.623 51.457 76.7266 50.4321 76.805C49.4129 76.8834 48.2004 76.9787 46.7948 77.0907C45.3947 77.2083 44.2103 77.3343 43.2414 77.4687C42.2782 77.6031 41.2058 77.7795 40.0241 77.9979C38.8425 78.2163 37.7 78.4711 36.5968 78.7623C35.4936 79.0591 34.3287 79.4763 33.1023 80.014C31.8702 80.5516 30.6466 81.1284 29.4313 81.7444C28.2161 82.3605 27.0624 82.9905 25.9704 83.6345C24.8727 84.2729 23.7695 84.9842 22.6607 85.7682C21.5462 86.5522 20.5214 87.4483 19.5861 88.4563C18.6509 89.4643 17.8557 90.366 17.2005 91.1612C16.5508 91.9508 15.9068 92.7909 15.2684 93.6813C14.6244 94.5717 13.9915 95.493 13.3699 96.445C12.7483 97.397 12.1323 98.4163 11.5218 99.5027C10.9114 100.584 10.3738 101.659 9.90898 102.728C9.44416 103.798 8.95414 104.955 8.43892 106.198C7.9237 107.441 7.40288 108.757 6.87646 110.146C6.35004 111.54 5.83202 113.013 5.3224 114.564C4.81838 116.121 4.33957 117.793 3.88595 119.579C3.43793 121.372 3.05712 123.178 2.7435 124.998C2.42989 126.823 2.21988 128.509 2.11348 130.055C2.01268 131.606 1.99588 133.138 2.06308 134.65C2.12468 136.156 2.15548 137.313 2.15548 138.119L2.13868 139.329Z" fill="black"/>
</svg>
