<svg width="34" height="38" viewBox="0 0 34 38" fill="none" xmlns="http://www.w3.org/2000/svg">
<path d="M1 4.84C1 2.7207 2.7207 1 4.84 1H29.16C31.2793 1 33 2.7207 33 4.84V34.3568C33 36.4761 31.698 37.3852 30.0944 36.3856C28.4908 35.386 26.0101 35.386 24.5584 36.3856C23.1067 37.3852 20.8239 37.3852 19.464 36.3856C18.1041 35.386 15.7668 35.386 14.248 36.3856C12.7292 37.3852 10.3431 37.3852 8.9232 36.3856C7.50327 35.386 5.15164 35.386 3.6752 36.3856C2.19876 37.3852 1 36.4761 1 34.3568V4.84Z" fill="white"/>
<path d="M1 4.84C1 2.7207 2.7207 1 4.84 1H29.16C31.2793 1 33 2.7207 33 4.84V34.3568C33 36.4761 31.698 37.3852 30.0944 36.3856C28.4908 35.386 26.0101 35.386 24.5584 36.3856C23.1067 37.3852 20.8239 37.3852 19.464 36.3856C18.1041 35.386 15.7668 35.386 14.248 36.3856C12.7292 37.3852 10.3431 37.3852 8.9232 36.3856C7.50327 35.386 5.15164 35.386 3.6752 36.3856C2.19876 37.3852 1 36.4761 1 34.3568V4.84Z" fill="white" stroke="white" stroke-width="0.7" stroke-linecap="round" stroke-linejoin="round"/>
<path d="M11.24 11.3027H15.08Z" fill="white"/>
<path d="M11.24 11.3027H15.08" stroke="black" stroke-width="0.7" stroke-linecap="round" stroke-linejoin="round"/>
<path d="M11.24 16.4227H22.76Z" fill="white"/>
<path d="M11.24 16.4227H22.76" stroke="black" stroke-width="0.7" stroke-linecap="round" stroke-linejoin="round"/>
<path d="M11.24 21.5428H22.76Z" fill="white"/>
<path d="M11.24 21.5428H22.76" stroke="black" stroke-width="0.7" stroke-linecap="round" stroke-linejoin="round"/>
</svg>
