<svg width="138" height="28" viewBox="0 0 138 28" fill="none" xmlns="http://www.w3.org/2000/svg">
<path d="M40.0199 24.1977C39.5879 24.1977 39.2249 24.1497 38.9309 24.0537C38.6429 23.9577 38.3999 23.8257 38.2019 23.6577C38.0039 23.4897 37.7999 23.2647 37.5899 22.9827L38.4449 22.2717C38.6909 22.6137 38.9279 22.8567 39.1559 23.0007C39.3899 23.1387 39.6779 23.2077 40.0199 23.2077C40.4939 23.2077 40.8389 23.1387 41.0549 23.0007C41.2709 22.8627 41.3789 22.6407 41.3789 22.3347C41.3789 22.1787 41.3279 22.0527 41.2259 21.9567C41.1239 21.8547 40.9469 21.7617 40.6949 21.6777C40.4489 21.5937 40.0799 21.5007 39.5879 21.3987C39.0119 21.2787 38.5829 21.0657 38.3009 20.7597C38.0249 20.4477 37.8869 20.0337 37.8869 19.5177C37.8869 19.1457 37.9799 18.8217 38.1659 18.5457C38.3579 18.2697 38.6279 18.0567 38.9759 17.9067C39.3239 17.7567 39.7289 17.6817 40.1909 17.6817C40.7909 17.6817 41.2679 17.7717 41.6219 17.9517C41.9759 18.1257 42.2639 18.3837 42.4859 18.7257L41.6489 19.4097C41.4629 19.2237 41.3069 19.0827 41.1809 18.9867C41.0609 18.8847 40.9229 18.8067 40.7669 18.7527C40.6109 18.6987 40.4189 18.6717 40.1909 18.6717C39.8489 18.6717 39.5909 18.7467 39.4169 18.8967C39.2429 19.0467 39.1559 19.2627 39.1559 19.5447C39.1559 19.8087 39.2669 20.0037 39.4889 20.1297C39.7109 20.2497 39.9959 20.3487 40.3439 20.4267C40.8599 20.5347 41.2709 20.6457 41.5769 20.7597C41.8829 20.8737 42.1379 21.0567 42.3419 21.3087C42.5459 21.5607 42.6479 21.9057 42.6479 22.3437C42.6479 22.9677 42.4289 23.4327 41.9909 23.7387C41.5589 24.0447 40.9019 24.1977 40.0199 24.1977ZM43.744 17.7897H46.291C47.059 17.7897 47.626 17.9547 47.992 18.2847C48.358 18.6087 48.541 19.1127 48.541 19.7967C48.541 20.4807 48.358 20.9877 47.992 21.3177C47.626 21.6417 47.059 21.8037 46.291 21.8037H45.013V24.0897H43.744V17.7897ZM46.327 20.8137C46.603 20.8137 46.828 20.7297 47.002 20.5617C47.182 20.3937 47.272 20.1387 47.272 19.7967C47.272 19.4547 47.182 19.1997 47.002 19.0317C46.828 18.8637 46.603 18.7797 46.327 18.7797H45.013V20.8137H46.327ZM51.4092 24.0897C50.6412 24.0897 50.0892 23.9217 49.7532 23.5857C49.4232 23.2497 49.2582 22.7637 49.2582 22.1277V17.7897H50.5272V22.1277C50.5272 22.4577 50.5992 22.7037 50.7432 22.8657C50.8872 23.0217 51.1092 23.0997 51.4092 23.0997H53.4252V24.0897H51.4092ZM54.4139 17.7897H55.6829V24.0897H54.4139V17.7897ZM58.5228 18.7797H56.6238V17.7897H61.6908V18.7797H59.7918V24.0897H58.5228V18.7797ZM68.2051 20.2917C68.4691 20.3577 68.6881 20.4627 68.8621 20.6067C69.0361 20.7447 69.1861 20.9277 69.3121 21.1557C69.4381 21.3777 69.5701 21.6837 69.7081 22.0737L70.4281 24.0897H69.1501L68.4661 22.1997C68.3821 21.9657 68.3041 21.7887 68.2321 21.6687C68.1661 21.5427 68.0701 21.4377 67.9441 21.3537C67.8181 21.2697 67.6411 21.2097 67.4131 21.1737L66.4231 22.2717V24.0897H65.1541V17.7897H66.4231V20.6787L68.9701 17.7897H70.4641L68.2051 20.2917ZM75.0113 22.6227H72.5453L72.1223 24.0897H70.8533L72.3923 19.0677C72.5003 18.7077 72.6143 18.4287 72.7343 18.2307C72.8543 18.0327 72.9953 17.8917 73.1573 17.8077C73.3253 17.7237 73.5323 17.6817 73.7783 17.6817C74.0243 17.6817 74.2283 17.7237 74.3903 17.8077C74.5523 17.8917 74.6933 18.0327 74.8133 18.2307C74.9393 18.4287 75.0563 18.7077 75.1643 19.0677L76.7033 24.0897H75.4343L75.0113 22.6227ZM74.7323 21.6777L73.9763 19.0857C73.9343 18.9297 73.8683 18.8517 73.7783 18.8517C73.6883 18.8517 73.6223 18.9297 73.5803 19.0857L72.8243 21.6777H74.7323ZM82.7552 24.0897H81.4142L81.0002 22.6947C80.9162 22.4067 80.8322 22.1847 80.7482 22.0287C80.6642 21.8667 80.5502 21.7437 80.4062 21.6597C80.2622 21.5757 80.0702 21.5337 79.8302 21.5337H78.9212V24.0897H77.6522V17.7897H80.1992C80.9672 17.7897 81.5342 17.9427 81.9002 18.2487C82.2662 18.5487 82.4492 19.0197 82.4492 19.6617C82.4492 20.0757 82.3382 20.4087 82.1162 20.6607C81.9002 20.9127 81.6002 21.0747 81.2162 21.1467C81.5222 21.2487 81.7532 21.4257 81.9092 21.6777C82.0652 21.9297 82.2092 22.2717 82.3412 22.7037L82.7552 24.0897ZM80.2352 20.5437C80.5112 20.5437 80.7362 20.4717 80.9102 20.3277C81.0902 20.1777 81.1802 19.9557 81.1802 19.6617C81.1802 19.3677 81.0902 19.1487 80.9102 19.0047C80.7362 18.8547 80.5112 18.7797 80.2352 18.7797H78.9212V20.5437H80.2352ZM86.3094 17.7897H87.4614L87.2994 22.1277H86.4714L86.3094 17.7897ZM86.8854 24.1977C86.6874 24.1977 86.5194 24.1317 86.3814 23.9997C86.2434 23.8617 86.1744 23.6967 86.1744 23.5047C86.1744 23.3127 86.2434 23.1477 86.3814 23.0097C86.5194 22.8657 86.6874 22.7937 86.8854 22.7937C87.0714 22.7937 87.2334 22.8657 87.3714 23.0097C87.5094 23.1477 87.5784 23.3127 87.5784 23.5047C87.5784 23.6967 87.5094 23.8617 87.3714 23.9997C87.2394 24.1317 87.0774 24.1977 86.8854 24.1977Z" fill="black"/>
<path d="M0.98 3H3.43C4.15 3 4.72 3.11333 5.14 3.34C5.56667 3.56667 5.87333 3.93333 6.06 4.44C6.25333 4.94667 6.35 5.63333 6.35 6.5C6.35 7.36667 6.25333 8.05333 6.06 8.56C5.87333 9.06667 5.57 9.43333 5.15 9.66C4.73 9.88667 4.15667 10 3.43 10H0.98V3ZM3.43 9.57C4.02333 9.57 4.49333 9.47 4.84 9.27C5.18667 9.07 5.43667 8.75 5.59 8.31C5.75 7.86333 5.83 7.26 5.83 6.5C5.83 5.74667 5.75 5.14667 5.59 4.7C5.43667 4.25333 5.18667 3.93 4.84 3.73C4.49333 3.53 4.02333 3.43 3.43 3.43H1.5V9.57H3.43ZM9.54266 10.11C8.92932 10.11 8.45266 9.95 8.11266 9.63C7.77266 9.31 7.60266 8.86667 7.60266 8.3V6.99C7.60266 6.42333 7.77266 5.98333 8.11266 5.67C8.45266 5.35 8.92932 5.19 9.54266 5.19C10.1493 5.19 10.6227 5.35 10.9627 5.67C11.3093 5.98333 11.4827 6.42333 11.4827 6.99V8.3C11.4827 8.86667 11.3093 9.31 10.9627 9.63C10.6227 9.95 10.1493 10.11 9.54266 10.11ZM9.54266 9.7C10.0027 9.7 10.3593 9.58 10.6127 9.34C10.866 9.09333 10.9927 8.74667 10.9927 8.3V6.99C10.9927 6.54333 10.866 6.2 10.6127 5.96C10.3593 5.71333 10.0027 5.59 9.54266 5.59C9.07599 5.59 8.71599 5.71333 8.46266 5.96C8.20932 6.2 8.08266 6.54333 8.08266 6.99V8.3C8.08266 8.74667 8.20932 9.09333 8.46266 9.34C8.71599 9.58 9.07599 9.7 9.54266 9.7ZM15.2108 5.19C15.6574 5.19 16.0108 5.33333 16.2708 5.62C16.5308 5.9 16.6608 6.28667 16.6608 6.78V10H16.1808V6.88C16.1808 6.47333 16.0841 6.15667 15.8908 5.93C15.7041 5.70333 15.4374 5.59 15.0908 5.59C14.6841 5.59 14.3274 5.75 14.0208 6.07C13.7208 6.38333 13.5208 6.80667 13.4208 7.34V10H12.9408V5.97C12.9408 5.87 12.9208 5.78667 12.8808 5.72C12.8474 5.65333 12.7808 5.57333 12.6808 5.48L12.9908 5.19C13.1508 5.28333 13.2608 5.39 13.3208 5.51C13.3874 5.63 13.4208 5.79667 13.4208 6.01V6.44C13.5874 6.04 13.8241 5.73333 14.1308 5.52C14.4374 5.3 14.7974 5.19 15.2108 5.19ZM18.3235 2.74C18.4568 2.74 18.5602 2.78667 18.6335 2.88C18.7135 2.96667 18.7535 3.09333 18.7535 3.26C18.7535 3.54667 18.7002 3.8 18.5935 4.02C18.4868 4.23333 18.3268 4.43667 18.1135 4.63L17.9435 4.46C18.0968 4.30667 18.2102 4.15667 18.2835 4.01C18.3568 3.86333 18.3968 3.70333 18.4035 3.53C18.3502 3.57 18.2802 3.59 18.1935 3.59C18.1002 3.59 18.0235 3.55667 17.9635 3.49C17.9102 3.42333 17.8835 3.33333 17.8835 3.22C17.8835 3.1 17.9235 2.99 18.0035 2.89C18.0902 2.79 18.1968 2.74 18.3235 2.74ZM20.6071 5.7V8.76C20.6071 9.37333 20.8871 9.68 21.4471 9.68H21.9571V10.08H21.4471C20.5671 10.08 20.1271 9.64 20.1271 8.76V4.1C20.1271 4 20.1071 3.91667 20.0671 3.85C20.0338 3.78333 19.9671 3.70333 19.8671 3.61L20.1871 3.32C20.3471 3.41333 20.4571 3.52 20.5171 3.64C20.5771 3.76 20.6071 3.92667 20.6071 4.14V5.3H21.9571V5.7H20.6071ZM28.6261 10.11C28.4661 10.01 28.3528 9.9 28.2861 9.78C28.2261 9.65333 28.1961 9.48667 28.1961 9.28V5.69H26.1261V10H25.6461V4.54C25.6461 4.02 25.7861 3.62 26.0661 3.34C26.3461 3.06 26.7461 2.92 27.2661 2.92H27.4761V3.32H27.2661C26.8994 3.32 26.6161 3.42667 26.4161 3.64C26.2228 3.84667 26.1261 4.14667 26.1261 4.54V5.3H28.6861V9.32C28.6861 9.42667 28.7028 9.51333 28.7361 9.58C28.7694 9.64667 28.8394 9.72333 28.9461 9.81L28.6261 10.11ZM28.4461 4.11C28.3394 4.11 28.2461 4.07333 28.1661 4C28.0928 3.92667 28.0561 3.83667 28.0561 3.73C28.0561 3.62333 28.0928 3.53333 28.1661 3.46C28.2461 3.38667 28.3394 3.35 28.4461 3.35C28.5528 3.35 28.6428 3.38667 28.7161 3.46C28.7894 3.53333 28.8261 3.62333 28.8261 3.73C28.8261 3.83667 28.7894 3.92667 28.7161 4C28.6428 4.07333 28.5528 4.11 28.4461 4.11ZM34.5991 5.48C34.4991 5.57333 34.4291 5.65333 34.3891 5.72C34.3558 5.78667 34.3391 5.87 34.3391 5.97V10.42C34.3391 10.94 34.2025 11.3333 33.9291 11.6C33.6558 11.8667 33.2491 12 32.7091 12H31.5391V11.61H32.7091C33.0825 11.61 33.3658 11.5067 33.5591 11.3C33.7591 11.0933 33.8591 10.7967 33.8591 10.41V9.17C33.6991 9.43667 33.4791 9.64333 33.1991 9.79C32.9258 9.93 32.6125 10 32.2591 10C31.6325 10 31.1325 9.79333 30.7591 9.38C30.3858 8.96 30.1991 8.4 30.1991 7.7V7.49C30.1991 7.03 30.2825 6.62667 30.4491 6.28C30.6225 5.93333 30.8625 5.66667 31.1691 5.48C31.4825 5.28667 31.8458 5.19 32.2591 5.19C32.6125 5.19 32.9291 5.26333 33.2091 5.41C33.4891 5.55 33.7158 5.75667 33.8891 6.03V5.92C33.8891 5.74 33.9158 5.59667 33.9691 5.49C34.0225 5.38333 34.1291 5.28333 34.2891 5.19L34.5991 5.48ZM32.2991 9.6C32.7191 9.6 33.0525 9.50333 33.2991 9.31C33.5458 9.11667 33.7325 8.83333 33.8591 8.46V6.73C33.7325 6.35667 33.5458 6.07333 33.2991 5.88C33.0525 5.68667 32.7191 5.59 32.2991 5.59C31.8125 5.59 31.4191 5.76333 31.1191 6.11C30.8258 6.45667 30.6791 6.91667 30.6791 7.49V7.7C30.6791 8.27333 30.8258 8.73333 31.1191 9.08C31.4191 9.42667 31.8125 9.6 32.2991 9.6ZM38.287 5.19C38.7336 5.19 39.087 5.33333 39.347 5.62C39.607 5.9 39.737 6.28667 39.737 6.78V10H39.257V6.88C39.257 6.47333 39.1603 6.15667 38.967 5.93C38.7803 5.70333 38.5136 5.59 38.167 5.59C37.7603 5.59 37.407 5.75 37.107 6.07C36.807 6.38333 36.6036 6.81 36.497 7.35V10H36.017V3.6C36.017 3.5 35.997 3.41667 35.957 3.35C35.9236 3.28333 35.857 3.20333 35.757 3.11L36.067 2.82C36.227 2.91333 36.337 3.02 36.397 3.14C36.4636 3.26 36.497 3.42667 36.497 3.64V6.46C36.657 6.05333 36.8903 5.74 37.197 5.52C37.5103 5.3 37.8736 5.19 38.287 5.19ZM41.7497 5.7V8.76C41.7497 9.37333 42.0297 9.68 42.5897 9.68H43.0997V10.08H42.5897C41.7097 10.08 41.2697 9.64 41.2697 8.76V4.1C41.2697 4 41.2497 3.91667 41.2097 3.85C41.1764 3.78333 41.1097 3.70333 41.0097 3.61L41.3297 3.32C41.4897 3.41333 41.5997 3.52 41.6597 3.64C41.7197 3.76 41.7497 3.92667 41.7497 4.14V5.3H43.0997V5.7H41.7497ZM48.8887 5.19C49.3087 5.19 49.672 5.29 49.9787 5.49C50.2853 5.69 50.5187 5.96333 50.6787 6.31C50.8387 6.65667 50.9187 7.05 50.9187 7.49V7.81C50.9187 8.24333 50.8387 8.63667 50.6787 8.99C50.5187 9.33667 50.2853 9.61 49.9787 9.81C49.672 10.01 49.3087 10.11 48.8887 10.11C48.1353 10.11 47.592 9.83 47.2587 9.27V12.19H46.7787V5.97C46.7787 5.87 46.7587 5.78667 46.7187 5.72C46.6853 5.65333 46.6187 5.57333 46.5187 5.48L46.8287 5.19C46.9753 5.27667 47.082 5.37 47.1487 5.47C47.2153 5.57 47.2487 5.70333 47.2487 5.87C47.2487 5.93667 47.2453 5.99 47.2387 6.03C47.392 5.77 47.6087 5.56667 47.8887 5.42C48.1687 5.26667 48.502 5.19 48.8887 5.19ZM50.4387 7.49C50.4387 6.91667 50.2887 6.45667 49.9887 6.11C49.6953 5.76333 49.3053 5.59 48.8187 5.59C48.3987 5.59 48.0653 5.69 47.8187 5.89C47.572 6.08333 47.3853 6.36333 47.2587 6.73V8.56C47.3853 8.93333 47.572 9.21667 47.8187 9.41C48.0653 9.60333 48.3987 9.7 48.8187 9.7C49.3053 9.7 49.6953 9.53 49.9887 9.19C50.2887 8.84333 50.4387 8.38333 50.4387 7.81V7.49ZM54.1541 9.7C54.7608 9.7 55.2475 9.50667 55.6141 9.12L55.9241 9.41C55.7175 9.64333 55.4675 9.82 55.1741 9.94C54.8808 10.0533 54.5341 10.11 54.1341 10.11C53.4808 10.11 52.9808 9.96667 52.6341 9.68C52.2941 9.38667 52.1241 8.96333 52.1241 8.41V6.86C52.1241 6.34667 52.2941 5.94333 52.6341 5.65C52.9741 5.35 53.4408 5.2 54.0341 5.2C54.6608 5.2 55.1375 5.35333 55.4641 5.66C55.7975 5.96667 55.9641 6.40667 55.9641 6.98C55.9641 7.32667 55.8941 7.56667 55.7541 7.7C55.6208 7.82667 55.3708 7.89 55.0041 7.89H52.6041V8.41C52.6041 8.84333 52.7308 9.16667 52.9841 9.38C53.2375 9.59333 53.6275 9.7 54.1541 9.7ZM54.0341 5.59C53.5941 5.59 53.2441 5.70667 52.9841 5.94C52.7308 6.17333 52.6041 6.48667 52.6041 6.88V7.52H54.8641C55.0975 7.52 55.2575 7.48 55.3441 7.4C55.4308 7.31333 55.4741 7.16 55.4741 6.94C55.4741 6.50667 55.3475 6.17333 55.0941 5.94C54.8475 5.70667 54.4941 5.59 54.0341 5.59ZM59.5467 5.19C59.9934 5.19 60.3467 5.33333 60.6067 5.62C60.8667 5.9 60.9967 6.28667 60.9967 6.78V10H60.5167V6.88C60.5167 6.47333 60.4201 6.15667 60.2267 5.93C60.0401 5.70333 59.7734 5.59 59.4267 5.59C59.0201 5.59 58.6634 5.75 58.3567 6.07C58.0567 6.38333 57.8567 6.80667 57.7567 7.34V10H57.2767V5.97C57.2767 5.87 57.2567 5.78667 57.2167 5.72C57.1834 5.65333 57.1167 5.57333 57.0167 5.48L57.3267 5.19C57.4867 5.28333 57.5967 5.39 57.6567 5.51C57.7234 5.63 57.7567 5.79667 57.7567 6.01V6.44C57.9234 6.04 58.1601 5.73333 58.4667 5.52C58.7734 5.3 59.1334 5.19 59.5467 5.19ZM66.4095 9.32C66.4095 9.42 66.4261 9.50333 66.4595 9.57C66.4995 9.63667 66.5695 9.71667 66.6695 9.81L66.3595 10.11C66.0728 9.93667 65.9295 9.65333 65.9295 9.26C65.7561 9.53333 65.5295 9.74333 65.2495 9.89C64.9761 10.0367 64.6628 10.11 64.3095 10.11C63.9028 10.11 63.5461 10.0167 63.2395 9.83C62.9328 9.63667 62.6928 9.36667 62.5195 9.02C62.3528 8.67333 62.2695 8.27 62.2695 7.81V7.49C62.2695 7.03 62.3528 6.62667 62.5195 6.28C62.6928 5.93333 62.9328 5.66667 63.2395 5.48C63.5461 5.28667 63.9028 5.19 64.3095 5.19C64.6695 5.19 64.9895 5.26333 65.2695 5.41C65.5495 5.55 65.7695 5.75333 65.9295 6.02V3.61C65.9295 3.50333 65.9128 3.42 65.8795 3.36C65.8461 3.29333 65.7761 3.21333 65.6695 3.12L65.9995 2.83C66.1528 2.92333 66.2595 3.03 66.3195 3.15C66.3795 3.27 66.4095 3.43667 66.4095 3.65V9.32ZM65.9295 6.73C65.8028 6.36333 65.6161 6.08333 65.3695 5.89C65.1228 5.69 64.7895 5.59 64.3695 5.59C63.8828 5.59 63.4895 5.76333 63.1895 6.11C62.8961 6.45667 62.7495 6.91667 62.7495 7.49V7.81C62.7495 8.38333 62.8961 8.84333 63.1895 9.19C63.4895 9.53 63.8828 9.7 64.3695 9.7C64.7895 9.7 65.1228 9.60333 65.3695 9.41C65.6161 9.21667 65.8028 8.93333 65.9295 8.56V6.73ZM68.3773 4.11C68.2706 4.11 68.1806 4.07333 68.1073 4C68.0339 3.92667 67.9973 3.83667 67.9973 3.73C67.9973 3.62333 68.0339 3.53333 68.1073 3.46C68.1806 3.38667 68.2706 3.35 68.3773 3.35C68.4839 3.35 68.5739 3.38667 68.6473 3.46C68.7206 3.53333 68.7573 3.62333 68.7573 3.73C68.7573 3.83667 68.7206 3.92667 68.6473 4C68.5739 4.07333 68.4839 4.11 68.3773 4.11ZM68.5673 10.11C68.4073 10.01 68.2939 9.9 68.2273 9.78C68.1673 9.66 68.1373 9.49333 68.1373 9.28V5.3H68.6173V9.32C68.6173 9.42 68.6339 9.50333 68.6673 9.57C68.7073 9.63667 68.7773 9.71667 68.8773 9.81L68.5673 10.11ZM72.6717 5.19C73.1184 5.19 73.4717 5.33333 73.7317 5.62C73.9917 5.9 74.1217 6.28667 74.1217 6.78V10H73.6417V6.88C73.6417 6.47333 73.5451 6.15667 73.3517 5.93C73.1651 5.70333 72.8984 5.59 72.5517 5.59C72.1451 5.59 71.7884 5.75 71.4817 6.07C71.1817 6.38333 70.9817 6.80667 70.8817 7.34V10H70.4017V5.97C70.4017 5.87 70.3817 5.78667 70.3417 5.72C70.3084 5.65333 70.2417 5.57333 70.1417 5.48L70.4517 5.19C70.6117 5.28333 70.7217 5.39 70.7817 5.51C70.8484 5.63 70.8817 5.79667 70.8817 6.01V6.44C71.0484 6.04 71.2851 5.73333 71.5917 5.52C71.8984 5.3 72.2584 5.19 72.6717 5.19ZM79.7945 5.48C79.6945 5.57333 79.6245 5.65333 79.5845 5.72C79.5511 5.78667 79.5345 5.87 79.5345 5.97V10.42C79.5345 10.94 79.3978 11.3333 79.1245 11.6C78.8511 11.8667 78.4445 12 77.9045 12H76.7345V11.61H77.9045C78.2778 11.61 78.5611 11.5067 78.7545 11.3C78.9545 11.0933 79.0545 10.7967 79.0545 10.41V9.17C78.8945 9.43667 78.6745 9.64333 78.3945 9.79C78.1211 9.93 77.8078 10 77.4545 10C76.8278 10 76.3278 9.79333 75.9545 9.38C75.5811 8.96 75.3945 8.4 75.3945 7.7V7.49C75.3945 7.03 75.4778 6.62667 75.6445 6.28C75.8178 5.93333 76.0578 5.66667 76.3645 5.48C76.6778 5.28667 77.0411 5.19 77.4545 5.19C77.8078 5.19 78.1245 5.26333 78.4045 5.41C78.6845 5.55 78.9111 5.75667 79.0845 6.03V5.92C79.0845 5.74 79.1111 5.59667 79.1645 5.49C79.2178 5.38333 79.3245 5.28333 79.4845 5.19L79.7945 5.48ZM77.4945 9.6C77.9145 9.6 78.2478 9.50333 78.4945 9.31C78.7411 9.11667 78.9278 8.83333 79.0545 8.46V6.73C78.9278 6.35667 78.7411 6.07333 78.4945 5.88C78.2478 5.68667 77.9145 5.59 77.4945 5.59C77.0078 5.59 76.6145 5.76333 76.3145 6.11C76.0211 6.45667 75.8745 6.91667 75.8745 7.49V7.7C75.8745 8.27333 76.0211 8.73333 76.3145 9.08C76.6145 9.42667 77.0078 9.6 77.4945 9.6ZM85.7732 10.11C85.4132 10.11 85.0932 10.04 84.8132 9.9C84.5399 9.75333 84.3199 9.54667 84.1532 9.28V10H83.6732V3.61C83.6732 3.50333 83.6565 3.41667 83.6232 3.35C83.5899 3.28333 83.5199 3.20667 83.4132 3.12L83.7232 2.83C83.8832 2.92333 83.9932 3.03 84.0532 3.15C84.1199 3.27 84.1532 3.43667 84.1532 3.65V6.02C84.3199 5.75333 84.5399 5.55 84.8132 5.41C85.0932 5.26333 85.4132 5.19 85.7732 5.19C86.1799 5.19 86.5365 5.28667 86.8432 5.48C87.1565 5.66667 87.3965 5.93333 87.5632 6.28C87.7365 6.62667 87.8232 7.03 87.8232 7.49V7.81C87.8232 8.26333 87.7365 8.66667 87.5632 9.02C87.3965 9.36667 87.1565 9.63667 86.8432 9.83C86.5365 10.0167 86.1799 10.11 85.7732 10.11ZM85.7132 9.7C86.1999 9.7 86.5899 9.53 86.8832 9.19C87.1832 8.84333 87.3332 8.38333 87.3332 7.81V7.49C87.3332 6.91667 87.1832 6.45667 86.8832 6.11C86.5899 5.76333 86.1999 5.59 85.7132 5.59C85.2932 5.59 84.9599 5.69 84.7132 5.89C84.4665 6.08333 84.2799 6.36333 84.1532 6.73V8.56C84.2799 8.93333 84.4665 9.21667 84.7132 9.41C84.9599 9.60333 85.2932 9.7 85.7132 9.7ZM89.5198 4.11C89.4132 4.11 89.3232 4.07333 89.2498 4C89.1765 3.92667 89.1398 3.83667 89.1398 3.73C89.1398 3.62333 89.1765 3.53333 89.2498 3.46C89.3232 3.38667 89.4132 3.35 89.5198 3.35C89.6265 3.35 89.7165 3.38667 89.7898 3.46C89.8632 3.53333 89.8998 3.62333 89.8998 3.73C89.8998 3.83667 89.8632 3.92667 89.7898 4C89.7165 4.07333 89.6265 4.11 89.5198 4.11ZM89.7098 10.11C89.5498 10.01 89.4365 9.9 89.3698 9.78C89.3098 9.66 89.2798 9.49333 89.2798 9.28V5.3H89.7598V9.32C89.7598 9.42 89.7765 9.50333 89.8098 9.57C89.8498 9.63667 89.9198 9.71667 90.0198 9.81L89.7098 10.11ZM92.0231 10.11C91.8631 10.01 91.7498 9.9 91.6831 9.78C91.6231 9.66 91.5931 9.49333 91.5931 9.28V3.6C91.5931 3.5 91.5731 3.41667 91.5331 3.35C91.4998 3.28333 91.4331 3.20333 91.3331 3.11L91.6431 2.82C91.8031 2.91333 91.9131 3.02 91.9731 3.14C92.0398 3.26 92.0731 3.42667 92.0731 3.64V9.32C92.0731 9.42 92.0898 9.50333 92.1231 9.57C92.1631 9.63667 92.2331 9.71667 92.3331 9.81L92.0231 10.11ZM94.2302 10.11C94.0702 10.01 93.9568 9.9 93.8902 9.78C93.8302 9.66 93.8002 9.49333 93.8002 9.28V3.6C93.8002 3.5 93.7802 3.41667 93.7402 3.35C93.7068 3.28333 93.6402 3.20333 93.5402 3.11L93.8502 2.82C94.0102 2.91333 94.1202 3.02 94.1802 3.14C94.2468 3.26 94.2802 3.42667 94.2802 3.64V9.32C94.2802 9.42 94.2968 9.50333 94.3302 9.57C94.3702 9.63667 94.4402 9.71667 94.5402 9.81L94.2302 10.11ZM97.336 10.11C96.9493 10.11 96.6193 10.0467 96.346 9.92C96.0727 9.79333 95.8327 9.59333 95.626 9.32L95.946 9.04C96.1527 9.28667 96.356 9.46 96.556 9.56C96.7627 9.65333 97.0227 9.7 97.336 9.7C97.7693 9.7 98.0993 9.62 98.326 9.46C98.5593 9.3 98.676 9.07 98.676 8.77C98.676 8.58333 98.6293 8.43333 98.536 8.32C98.4493 8.20667 98.296 8.11 98.076 8.03C97.8627 7.95 97.5527 7.87333 97.146 7.8C96.6727 7.71333 96.3193 7.56333 96.086 7.35C95.8593 7.13667 95.746 6.84667 95.746 6.48C95.746 6.08667 95.8927 5.77333 96.186 5.54C96.486 5.30667 96.8827 5.19 97.376 5.19C97.7627 5.19 98.0927 5.25333 98.366 5.38C98.646 5.50667 98.8593 5.69333 99.006 5.94L98.686 6.21C98.3927 5.79667 97.956 5.59 97.376 5.59C97.0293 5.59 96.7493 5.67333 96.536 5.84C96.3227 6 96.216 6.21333 96.216 6.48C96.216 6.72667 96.3027 6.92 96.476 7.06C96.656 7.2 96.956 7.31 97.376 7.39C98.0293 7.51667 98.486 7.68333 98.746 7.89C99.0127 8.09667 99.146 8.39333 99.146 8.78C99.146 9.20667 98.9893 9.53667 98.676 9.77C98.3693 9.99667 97.9227 10.11 97.336 10.11Z" fill="#424242"/>
<path d="M16.3958 24.1997C15.9758 24.1997 15.6158 24.1364 15.3158 24.0097C15.0225 23.8831 14.7425 23.6731 14.4758 23.3797L14.7958 23.0397C14.9958 23.2864 15.2225 23.4697 15.4758 23.5897C15.7292 23.7031 16.0325 23.7597 16.3858 23.7597C16.8992 23.7597 17.2958 23.6264 17.5758 23.3597C17.8558 23.0931 17.9958 22.7131 17.9958 22.2197V17.0897H18.5158V22.2397C18.5158 22.8597 18.3292 23.3431 17.9558 23.6897C17.5892 24.0297 17.0692 24.1997 16.3958 24.1997ZM23.7061 23.4097C23.7061 23.5164 23.7227 23.6031 23.7561 23.6697C23.7961 23.7364 23.8694 23.8164 23.9761 23.9097L23.6461 24.1997C23.4861 24.1064 23.3727 23.9997 23.3061 23.8797C23.2461 23.7531 23.2161 23.5831 23.2161 23.3697V22.9997C23.0494 23.3864 22.8127 23.6831 22.5061 23.8897C22.1994 24.0964 21.8361 24.1997 21.4161 24.1997C20.9427 24.1997 20.5761 24.0531 20.3161 23.7597C20.0561 23.4597 19.9261 23.0464 19.9261 22.5197V19.3897H20.4161V22.4997C20.4161 22.9131 20.5127 23.2331 20.7061 23.4597C20.9061 23.6797 21.1894 23.7897 21.5561 23.7897C21.9561 23.7897 22.3027 23.6397 22.5961 23.3397C22.8961 23.0397 23.1027 22.6397 23.2161 22.1397V19.3897H23.7061V23.4097ZM26.6772 24.1997C26.2905 24.1997 25.9605 24.1364 25.6872 24.0097C25.4138 23.8831 25.1738 23.6831 24.9672 23.4097L25.2872 23.1297C25.4938 23.3764 25.6972 23.5497 25.8972 23.6497C26.1038 23.7431 26.3638 23.7897 26.6772 23.7897C27.1105 23.7897 27.4405 23.7097 27.6672 23.5497C27.9005 23.3897 28.0172 23.1597 28.0172 22.8597C28.0172 22.6731 27.9705 22.5231 27.8772 22.4097C27.7905 22.2964 27.6372 22.1997 27.4172 22.1197C27.2038 22.0397 26.8938 21.9631 26.4872 21.8897C26.0138 21.8031 25.6605 21.6531 25.4272 21.4397C25.2005 21.2264 25.0872 20.9364 25.0872 20.5697C25.0872 20.1764 25.2338 19.8631 25.5272 19.6297C25.8272 19.3964 26.2238 19.2797 26.7172 19.2797C27.1038 19.2797 27.4338 19.3431 27.7072 19.4697C27.9872 19.5964 28.2005 19.7831 28.3472 20.0297L28.0272 20.2997C27.7338 19.8864 27.2972 19.6797 26.7172 19.6797C26.3705 19.6797 26.0905 19.7631 25.8772 19.9297C25.6638 20.0897 25.5572 20.3031 25.5572 20.5697C25.5572 20.8164 25.6438 21.0097 25.8172 21.1497C25.9972 21.2897 26.2972 21.3997 26.7172 21.4797C27.3705 21.6064 27.8272 21.7731 28.0872 21.9797C28.3538 22.1864 28.4872 22.4831 28.4872 22.8697C28.4872 23.2964 28.3305 23.6264 28.0172 23.8597C27.7105 24.0864 27.2638 24.1997 26.6772 24.1997ZM30.2022 19.7897V22.8497C30.2022 23.4631 30.4822 23.7697 31.0422 23.7697H31.5522V24.1697H31.0422C30.1622 24.1697 29.7222 23.7297 29.7222 22.8497V18.1897C29.7222 18.0897 29.7022 18.0064 29.6622 17.9397C29.6288 17.8731 29.5622 17.7931 29.4622 17.6997L29.7822 17.4097C29.9422 17.5031 30.0522 17.6097 30.1122 17.7297C30.1722 17.8497 30.2022 18.0164 30.2022 18.2297V19.3897H31.5522V19.7897H30.2022Z" fill="#424242"/>
<path d="M108.751 2.86896C108.751 2.86896 108.742 2.95074 108.724 3.1143C108.708 3.27783 108.696 3.48313 108.688 3.73022C108.68 3.97731 108.683 4.20537 108.697 4.41438C108.712 4.62548 108.767 4.85049 108.863 5.08939C108.962 5.32617 109.118 5.49074 109.331 5.58312C109.544 5.6755 109.805 5.73455 110.116 5.76028C110.426 5.78601 110.69 5.76445 110.909 5.69559C111.127 5.62463 111.273 5.45979 111.345 5.20105C111.418 4.94232 111.429 4.66065 111.377 4.35606C111.325 4.05146 111.282 3.79066 111.247 3.57366C111.211 3.35666 111.188 3.23361 111.177 3.20451C111.166 3.17332 111.16 3.14413 111.16 3.11693C111.159 3.08974 111.161 3.06355 111.165 3.03837C111.17 3.01315 111.178 2.98789 111.188 2.9626C111.2 2.93936 111.215 2.91712 111.231 2.8959C111.247 2.87467 111.266 2.85654 111.287 2.84152C111.309 2.82436 111.332 2.81139 111.355 2.8026C111.38 2.79168 111.405 2.7839 111.43 2.77926C111.457 2.77458 111.484 2.77304 111.511 2.77463C111.536 2.77627 111.562 2.78104 111.587 2.78895C111.612 2.79686 111.636 2.80793 111.66 2.82215C111.681 2.83641 111.701 2.85279 111.72 2.87127C111.739 2.89185 111.756 2.91353 111.769 2.93631C111.782 2.9591 111.792 2.98296 111.801 3.00791C111.808 3.0329 111.821 3.15928 111.84 3.38705C111.86 3.61477 111.883 3.85608 111.906 4.11097C111.928 4.36798 111.957 4.67821 111.995 5.04165C112.033 5.40719 112.083 5.82274 112.144 6.28831C112.202 6.75601 112.26 7.27919 112.317 7.85785C112.373 8.4365 112.401 8.74468 112.399 8.78237C112.396 8.82011 112.387 8.85689 112.373 8.89272C112.359 8.92646 112.34 8.9582 112.315 8.98795C112.289 9.01564 112.26 9.03919 112.229 9.05859C112.196 9.07803 112.16 9.09123 112.123 9.09819C112.085 9.10725 112.048 9.10898 112.01 9.10339C111.972 9.0999 111.936 9.09009 111.903 9.07396C111.867 9.05578 111.836 9.03437 111.81 9.00972C111.783 8.98302 111.76 8.95204 111.743 8.91678C111.725 8.88362 111.714 8.84824 111.709 8.81066C111.702 8.77312 111.703 8.73544 111.71 8.69763C111.716 8.65986 111.728 8.62512 111.746 8.59339C111.764 8.55958 111.788 8.52985 111.817 8.50421C111.844 8.47861 111.875 8.45816 111.91 8.44287C111.945 8.42548 111.982 8.4154 112.019 8.41262C112.057 8.40984 112.095 8.41229 112.132 8.41997C112.168 8.42978 112.202 8.44382 112.234 8.46207C112.267 8.48238 112.296 8.50697 112.32 8.53584C112.343 8.5668 112.363 8.59993 112.378 8.63523C112.391 8.67056 112.398 8.70706 112.399 8.74472C112.402 8.78233 112.397 8.82009 112.385 8.85797C112.375 8.89373 112.359 8.92751 112.337 8.95931C112.314 8.98902 112.289 9.01564 112.26 9.03919C112.229 9.06068 112.195 9.07805 112.157 9.09129C112.122 9.1024 112.085 9.10725 112.048 9.10585C112.01 9.10653 111.973 9.09988 111.937 9.08588C111.901 9.07398 111.869 9.05679 111.839 9.03431C111.807 9.00978 111.782 8.982 111.762 8.95096C111.741 8.91787 111.725 8.88362 111.716 8.8482C111.705 8.81074 111.7 8.79201 111.7 8.79201C111.7 8.79201 111.673 8.50578 111.621 7.93332C111.567 7.3609 111.511 6.83873 111.454 6.36681C111.396 5.89493 111.349 5.47409 111.315 5.10429C111.281 4.7345 111.256 4.42314 111.239 4.17024C111.221 3.91733 111.205 3.68534 111.188 3.47427C111.17 3.26324 111.16 3.14413 111.16 3.11693C111.159 3.08974 111.161 3.06355 111.165 3.03837C111.17 3.01315 111.178 2.98789 111.188 2.9626C111.2 2.93936 111.215 2.91712 111.231 2.8959C111.247 2.87467 111.266 2.85654 111.287 2.84152C111.309 2.82436 111.332 2.81139 111.355 2.8026C111.38 2.79168 111.405 2.7839 111.43 2.77926C111.457 2.77458 111.484 2.77304 111.511 2.77463C111.536 2.77627 111.562 2.78104 111.587 2.78895C111.612 2.79686 111.636 2.80793 111.66 2.82215C111.681 2.83641 111.701 2.85279 111.72 2.87127C111.739 2.89185 111.756 2.91353 111.769 2.93631C111.782 2.9591 111.792 2.98296 111.801 3.00791C111.808 3.0329 111.825 3.10584 111.852 3.22672C111.882 3.34756 111.922 3.54773 111.973 3.82722C112.026 4.10459 112.057 4.4263 112.066 4.79237C112.075 5.15635 111.994 5.47906 111.823 5.76051C111.653 6.03987 111.401 6.23072 111.068 6.33306C110.735 6.4354 110.474 6.48411 110.286 6.47918C110.097 6.47424 109.907 6.45573 109.716 6.42364C109.527 6.38942 109.342 6.33943 109.161 6.27368C108.982 6.20998 108.818 6.12193 108.67 6.00955C108.521 5.89716 108.395 5.75924 108.292 5.5958C108.193 5.43229 108.122 5.25464 108.081 5.06286C108.042 4.87104 108.016 4.65805 108.004 4.4239C107.991 4.18974 107.991 3.94176 108.003 3.67995C108.015 3.41814 108.03 3.20545 108.048 3.04189C108.063 2.87837 108.074 2.78295 108.08 2.75564C108.088 2.73038 108.098 2.70509 108.11 2.67975C108.122 2.65442 108.137 2.63217 108.156 2.61299C108.172 2.59177 108.191 2.5726 108.211 2.55548C108.234 2.54041 108.258 2.52742 108.283 2.5165C108.31 2.50764 108.337 2.50191 108.364 2.49932C108.391 2.49464 108.418 2.49415 108.446 2.49784C108.473 2.49943 108.499 2.50418 108.524 2.51209C108.55 2.5221 108.574 2.53421 108.597 2.54843C108.621 2.56475 108.642 2.5832 108.661 2.60377C108.678 2.62439 108.693 2.64609 108.706 2.66887C108.721 2.69371 108.732 2.71967 108.739 2.74675C108.746 2.77174 108.749 2.79888 108.75 2.82817L108.751 2.86896Z" fill="black"/>
<path d="M104.497 3.19151C104.497 3.19151 104.855 3.14312 105.571 3.04635C106.289 2.94953 107.152 2.81868 108.16 2.6538C109.165 2.49104 110.291 2.30622 111.537 2.09933C112.78 1.89038 114.059 1.69334 115.374 1.5082C116.689 1.32097 117.367 1.22803 117.407 1.2294C117.444 1.23081 117.481 1.23851 117.517 1.2525C117.553 1.2644 117.587 1.28262 117.618 1.30715C117.648 1.33172 117.673 1.35953 117.692 1.39056C117.714 1.42365 117.729 1.45895 117.738 1.49646C117.749 1.53392 117.753 1.57152 117.749 1.60925C117.746 1.64699 117.737 1.68377 117.723 1.7196C117.707 1.75547 117.687 1.78828 117.662 1.81803C117.636 1.84572 117.606 1.86929 117.572 1.88873C117.539 1.90817 117.504 1.92137 117.466 1.92833C117.427 1.93533 117.388 1.93708 117.35 1.93359C117.313 1.928 117.277 1.91609 117.243 1.89788C117.207 1.88179 117.175 1.8604 117.148 1.8337C117.122 1.80696 117.101 1.77596 117.083 1.7407C117.066 1.70544 117.054 1.66904 117.047 1.6315C117.042 1.59392 117.043 1.55622 117.051 1.51841C117.059 1.4806 117.072 1.44479 117.09 1.41097C117.108 1.37716 117.131 1.34743 117.16 1.32179C117.189 1.29615 117.221 1.27569 117.257 1.26039C117.292 1.2451 117.328 1.23502 117.366 1.23015C117.406 1.22733 117.444 1.23081 117.482 1.24058C117.518 1.25039 117.553 1.26545 117.587 1.28576C117.618 1.30611 117.647 1.3307 117.673 1.35953C117.696 1.39049 117.715 1.42364 117.728 1.45897C117.741 1.4964 117.748 1.53394 117.749 1.5716C117.752 1.60922 117.747 1.64697 117.735 1.68485C117.723 1.72065 117.706 1.75445 117.684 1.78625C117.661 1.81805 117.634 1.84574 117.604 1.86932C117.573 1.89082 117.538 1.90714 117.501 1.91829C117.465 1.92939 117.448 1.93495 117.448 1.93495C117.448 1.93495 116.793 2.02746 115.485 2.21249C114.174 2.39546 112.895 2.59039 111.65 2.79728C110.404 3.00627 109.274 3.19117 108.26 3.35198C107.248 3.51485 106.383 3.64365 105.665 3.73837C104.947 3.83518 104.574 3.88384 104.547 3.88434C104.52 3.88274 104.493 3.87905 104.465 3.87327C104.438 3.86749 104.412 3.85856 104.386 3.84646C104.361 3.83228 104.339 3.81594 104.319 3.79746C104.298 3.7811 104.28 3.76155 104.265 3.73881C104.248 3.71401 104.234 3.68915 104.223 3.66424C104.214 3.63719 104.207 3.61011 104.203 3.58299C104.2 3.55583 104.199 3.52864 104.201 3.5014C104.205 3.47204 104.212 3.44471 104.222 3.41941C104.231 3.39202 104.244 3.36669 104.258 3.34341C104.274 3.32218 104.293 3.30197 104.313 3.28276C104.332 3.26358 104.353 3.24749 104.378 3.23448C104.403 3.22147 104.429 3.21158 104.456 3.20481L104.497 3.19151Z" fill="black"/>
<path d="M95.3404 18.351C95.3404 18.351 95.4248 18.2741 95.5936 18.1203C95.7624 17.9687 96.0465 17.7668 96.4458 17.5146C96.8451 17.2646 97.2436 17.0261 97.6413 16.7991C98.0389 16.5721 98.4626 16.3352 98.9122 16.0884C99.3597 15.8417 99.8463 15.6141 100.372 15.4057C100.898 15.1994 101.422 15.0088 101.944 14.8339C102.466 14.6612 102.952 14.5006 103.401 14.3522C103.848 14.2038 104.27 14.0643 104.668 13.9335C105.065 13.8049 105.47 13.674 105.882 13.541C106.294 13.4079 106.726 13.2744 107.18 13.1406C107.634 13.0046 108.103 12.8799 108.586 12.7665C109.071 12.6509 109.567 12.533 110.074 12.4129C110.582 12.2927 111.097 12.1765 111.618 12.0645C112.139 11.9524 112.666 11.8518 113.198 11.7626C113.73 11.6733 114.276 11.5734 114.837 11.4627C115.4 11.354 115.947 11.253 116.477 11.1597C117.006 11.0663 117.518 10.9889 118.011 10.9276C118.505 10.8642 118.972 10.8096 119.411 10.7639C119.851 10.7203 120.271 10.676 120.67 10.6311C121.069 10.5861 121.477 10.5421 121.895 10.4989C122.313 10.4578 122.718 10.4252 123.111 10.4013C123.504 10.3753 123.888 10.3526 124.262 10.3332C124.636 10.3139 125.011 10.3018 125.385 10.297C125.76 10.2923 126.243 10.2887 126.835 10.2863C127.43 10.2859 127.76 10.2882 127.828 10.2933C127.895 10.2983 127.959 10.3139 128.02 10.34C128.081 10.3661 128.137 10.4017 128.188 10.4468C128.239 10.4919 128.281 10.5435 128.313 10.6015C128.348 10.6594 128.371 10.7218 128.383 10.7886C128.396 10.8511 128.399 10.9159 128.389 10.9831C128.382 11.0502 128.364 11.1133 128.333 11.1724C128.303 11.2337 128.264 11.2877 128.217 11.3346C128.17 11.3836 128.116 11.4233 128.056 11.4537C127.996 11.4841 127.933 11.5041 127.869 11.5137C127.802 11.5232 127.735 11.5213 127.668 11.5079C127.603 11.4965 127.54 11.4746 127.481 11.4422C127.422 11.4077 127.37 11.3658 127.325 11.3164C127.28 11.267 127.244 11.2111 127.215 11.1489C127.189 11.0887 127.173 11.0251 127.168 10.9583C127.162 10.8914 127.168 10.8264 127.183 10.7634C127.199 10.6982 127.225 10.637 127.261 10.5799C127.296 10.5227 127.339 10.4728 127.391 10.43C127.444 10.3871 127.502 10.3536 127.564 10.3295C127.627 10.3074 127.691 10.2947 127.758 10.2914C127.827 10.2901 127.894 10.2994 127.957 10.3192C128.022 10.3368 128.082 10.365 128.137 10.4038C128.192 10.4446 128.239 10.4919 128.278 10.5456C128.317 10.5993 128.346 10.6584 128.366 10.7229C128.386 10.7854 128.395 10.8501 128.395 10.917C128.394 10.984 128.382 11.0491 128.36 11.1123C128.336 11.1755 128.304 11.2336 128.263 11.2867C128.22 11.3398 128.171 11.3847 128.115 11.4213C128.059 11.4579 127.998 11.4841 127.931 11.5C127.867 11.5158 127.834 11.5237 127.834 11.5237C127.834 11.5237 127.616 11.5266 127.178 11.5325C126.741 11.5384 126.251 11.5442 125.71 11.5499C125.168 11.5535 124.71 11.5671 124.335 11.5907C123.961 11.6122 123.585 11.6368 123.207 11.6647C122.826 11.6904 122.433 11.7248 122.028 11.7678C121.623 11.8107 121.217 11.8569 120.81 11.9062C120.402 11.9554 119.984 12.0039 119.554 12.0515C119.121 12.0971 118.67 12.1513 118.2 12.2143C117.731 12.2773 117.235 12.3544 116.714 12.4455C116.192 12.5366 115.643 12.6366 115.068 12.7455C114.492 12.8544 113.946 12.9512 113.428 13.036C112.913 13.1228 112.401 13.22 111.892 13.3277C111.384 13.4353 110.874 13.5472 110.363 13.6632C109.853 13.7814 109.366 13.8959 108.904 14.0069C108.441 14.1158 107.991 14.2349 107.554 14.3643C107.117 14.4936 106.689 14.626 106.271 14.7612C105.853 14.8965 105.444 15.0264 105.045 15.1509C104.647 15.2733 104.218 15.4004 103.758 15.5322C103.298 15.6641 102.804 15.7977 102.274 15.9329C101.743 16.0681 101.225 16.2073 100.719 16.3505C100.213 16.4937 99.7262 16.6574 99.2587 16.8417C98.7933 17.0281 98.3477 17.2047 97.9217 17.3715C97.4978 17.5383 97.0709 17.7104 96.6409 17.8878C96.211 18.0651 95.8867 18.1872 95.6682 18.254L95.3404 18.351Z" fill="black"/>
<path d="M113.369 2.23536C113.369 2.23536 113.422 2.19987 113.527 2.12888C113.635 2.05995 113.891 2.02494 114.295 2.02385C114.701 2.02272 115.04 2.14941 115.312 2.40394C115.583 2.6585 115.76 2.96709 115.844 3.32969C115.926 3.69233 115.899 4.04127 115.763 4.3765C115.626 4.71173 115.46 5.02973 115.262 5.3305C115.065 5.63337 114.792 5.83506 114.444 5.93558C114.097 6.0361 113.745 6.03519 113.39 5.93286C113.036 5.83048 112.872 5.58968 112.896 5.21045C112.923 4.83327 113.117 4.63719 113.479 4.62222C113.845 4.60717 114.141 4.74302 114.368 5.02977C114.593 5.31446 114.836 5.59778 115.096 5.87973C115.357 6.16169 115.651 6.37815 115.978 6.52914C116.305 6.68222 116.765 6.6979 117.357 6.57617C117.951 6.45442 118.276 6.39825 118.333 6.40768C118.392 6.41707 118.448 6.43489 118.5 6.46113C118.553 6.48946 118.601 6.52417 118.644 6.56525C118.684 6.60845 118.717 6.65703 118.743 6.71096C118.767 6.76493 118.783 6.82115 118.79 6.87961C118.798 6.93808 118.796 6.99566 118.784 7.05238C118.773 7.11118 118.752 7.16598 118.721 7.21676C118.691 7.26754 118.654 7.31321 118.611 7.35376C118.565 7.39226 118.516 7.42246 118.462 7.44437C118.406 7.46633 118.348 7.47993 118.29 7.48518C118.231 7.48834 118.173 7.48209 118.114 7.46642C118.057 7.45281 118.004 7.4297 117.956 7.39711C117.907 7.36451 117.864 7.32448 117.828 7.27701C117.791 7.22955 117.763 7.17879 117.743 7.12474C117.724 7.0686 117.713 7.01019 117.712 6.94952C117.711 6.89095 117.719 6.83324 117.737 6.77641C117.755 6.71959 117.782 6.66781 117.819 6.6211C117.854 6.57443 117.896 6.5339 117.945 6.49951C117.993 6.46516 118.045 6.44014 118.101 6.42447C118.159 6.40666 118.218 6.39932 118.276 6.40243C118.335 6.40555 118.392 6.41707 118.447 6.437C118.503 6.45898 118.554 6.4884 118.599 6.52525C118.646 6.56416 118.684 6.60845 118.714 6.65813C118.747 6.70986 118.769 6.76387 118.78 6.82016C118.794 6.87851 118.798 6.93703 118.793 6.99572C118.787 7.05441 118.773 7.11118 118.749 7.16604C118.724 7.2188 118.692 7.26752 118.651 7.31222C118.612 7.35479 118.566 7.39015 118.515 7.4183C118.461 7.44648 118.405 7.46634 118.346 7.47787C118.29 7.48727 118.262 7.49197 118.262 7.49197C118.262 7.49197 118.005 7.56991 117.491 7.72578C116.979 7.88371 116.549 7.90829 116.202 7.79953C115.852 7.6929 115.517 7.55252 115.196 7.37841C114.877 7.20426 114.601 6.98015 114.367 6.70607C114.134 6.42989 113.999 6.09858 113.96 5.71212C113.922 5.32776 114.053 5.03551 114.355 4.83538C114.659 4.63521 114.892 4.36937 115.053 4.03786C115.215 3.70845 115.218 3.37774 115.063 3.04572C114.907 2.71165 114.647 2.50817 114.283 2.43528C113.922 2.36444 113.679 2.31445 113.555 2.28533L113.369 2.23536Z" fill="black"/>
</svg>
